<?xml version="1.0" standalone="no"?>
<!DOCTYPE svg PUBLIC "-//W3C//DTD SVG 20010904//EN"
 "http://www.w3.org/TR/2001/REC-SVG-20010904/DTD/svg10.dtd">
<svg version="1.0" xmlns="http://www.w3.org/2000/svg"
 width="1300.000000pt" height="1300.000000pt" viewBox="0 0 1300.000000 1300.000000"
 preserveAspectRatio="xMidYMid meet">
<metadata>
Created by potrace 1.11, written by Peter Selinger 2001-2013
</metadata>
<g transform="translate(0.000000,1300.000000) scale(0.100000,-0.100000)"
fill="#000000" stroke="none">
<path d="M8818 11850 c-99 -30 -156 -129 -207 -361 -53 -247 -73 -667 -43
-909 17 -131 58 -318 84 -384 11 -28 24 -75 29 -106 59 -326 262 -599 557
-747 67 -33 88 -40 99 -31 11 9 13 8 11 -1 -7 -32 185 -72 342 -72 225 1 406
57 593 183 83 56 202 178 262 267 43 66 47 76 35 95 -12 19 -12 20 3 7 15 -12
20 -7 48 55 58 128 81 241 83 404 2 287 -70 469 -303 770 -317 408 -822 733
-1272 821 -102 19 -270 24 -321 9z"/>
<path d="M5060 10470 c-795 -77 -1277 -540 -1307 -1255 -14 -358 97 -741 323
-1110 37 -60 74 -122 83 -137 9 -15 48 -78 87 -140 473 -756 607 -1004 707
-1313 27 -80 70 -265 65 -271 -2 -1 -298 -5 -658 -8 -595 -5 -645 -4 -545 9
439 56 795 228 795 383 0 91 -170 158 -594 232 -127 23 -303 58 -391 80 -88
21 -173 42 -190 45 -223 43 -402 -21 -476 -172 -18 -38 -23 -65 -23 -133 -1
-75 3 -93 31 -153 79 -166 257 -277 471 -294 l84 -6 -7 -46 c-4 -25 -22 -111
-40 -191 l-34 -145 37 -40 37 -40 -37 34 c-43 39 -34 54 -78 -149 -17 -80 -40
-187 -52 -239 l-21 -93 -51 6 c-205 25 -331 29 -473 17 -419 -35 -780 -169
-1102 -409 -96 -72 -285 -254 -364 -352 -214 -264 -363 -589 -428 -933 -30
-158 -37 -475 -15 -642 19 -133 61 -312 101 -426 40 -110 156 -342 220 -439
348 -519 896 -854 1507 -921 166 -18 455 -6 617 26 305 60 576 178 833 362
100 71 298 260 379 361 240 298 394 652 447 1022 13 98 20 125 32 123 8 -1
172 -12 363 -24 l349 -23 14 -28 c59 -113 222 -165 339 -108 117 57 177 213
126 326 l-19 41 166 179 c91 98 211 229 267 290 56 62 291 316 521 566 230
249 572 620 759 823 1003 1089 963 1047 968 1037 2 -4 68 -170 148 -370 107
-268 148 -361 158 -357 10 4 11 2 3 -7 -7 -10 7 -56 54 -173 36 -88 67 -169
70 -181 5 -17 -8 -26 -99 -68 -339 -155 -670 -446 -865 -761 -74 -120 -105
-179 -155 -295 -68 -157 -109 -295 -144 -480 -25 -135 -25 -523 -1 -665 79
-456 280 -840 604 -1157 554 -542 1374 -727 2109 -476 733 250 1260 882 1382
1653 24 151 24 459 0 609 -56 353 -183 657 -392 941 -72 98 -253 286 -355 368
-225 182 -514 326 -796 396 -205 51 -252 56 -509 56 -256 -1 -331 -9 -521 -60
-51 -14 -94 -25 -97 -25 -2 0 -42 95 -88 210 -62 155 -88 209 -98 205 -10 -4
-11 -2 -3 8 8 9 -23 96 -124 347 -74 183 -134 335 -134 337 0 3 99 68 368 243
l73 47 -91 21 -92 22 -161 -151 c-89 -83 -172 -155 -184 -159 -12 -5 -340 -10
-730 -11 -389 -1 -724 -3 -743 -5 -19 -1 -183 -3 -365 -3 l-329 -1 49 -52 50
-53 -55 53 -56 52 -249 0 -249 0 -51 -47 -50 -48 45 48 44 47 -70 0 -70 0 -12
136 c-23 254 -114 634 -166 694 -11 13 -14 19 -5 12 43 -32 -142 408 -328 780
-202 407 -197 396 -198 474 0 67 2 73 36 115 122 148 455 229 942 229 591 0
1114 -126 1393 -336 109 -82 211 -215 482 -624 280 -425 408 -594 579 -763
126 -125 233 -204 358 -266 194 -95 287 -112 625 -111 226 0 484 13 520 26 8
3 42 7 74 10 74 4 201 28 331 60 326 81 534 209 601 370 19 44 22 165 6 205
-18 46 -70 96 -123 118 -133 58 -300 63 -783 25 -377 -29 -681 -29 -811 1
-199 45 -347 165 -449 364 -76 148 -110 263 -197 656 -89 408 -152 570 -307
795 -382 554 -896 891 -1648 1079 -187 47 -569 108 -854 135 -320 32 -955 52
-1120 36z m1135 -70 c10 -11 16 -20 13 -20 -3 0 -13 9 -23 20 -10 11 -16 20
-13 20 3 0 13 -9 23 -20z m565 -64 c0 -2 -8 -10 -17 -17 -16 -13 -17 -12 -4 4
13 16 21 21 21 13z m-40 -39 c0 -2 -17 -19 -37 -38 l-38 -34 34 38 c33 34 41
42 41 34z m-80 -80 c0 -2 -17 -19 -37 -38 l-38 -34 34 38 c33 34 41 42 41 34z
m-125 -120 c4 5 5 2 1 -5 -6 -11 -15 -7 -37 14 -16 15 -29 30 -29 33 0 2 13
-7 28 -22 16 -15 32 -24 37 -20z m45 39 c0 -2 -8 -10 -17 -17 -16 -13 -17 -12
-4 4 13 16 21 21 21 13z m-19 -83 c13 -16 12 -17 -3 -4 -10 7 -18 15 -18 17 0
8 8 3 21 -13z m-71 -6 c0 -2 -15 -16 -32 -33 l-33 -29 29 33 c28 30 36 37 36
29z m-70 -70 c0 -2 -17 -19 -37 -38 l-38 -34 34 38 c33 34 41 42 41 34z m-80
-80 c0 -2 -17 -19 -37 -38 l-38 -34 34 38 c33 34 41 42 41 34z m-80 -80 c0 -2
-17 -19 -37 -38 l-38 -34 34 38 c33 34 41 42 41 34z m-80 -80 c0 -2 -17 -19
-37 -38 l-38 -34 34 38 c33 34 41 42 41 34z m-80 -80 c0 -2 -17 -19 -37 -38
l-38 -34 34 38 c33 34 41 42 41 34z m-80 -80 c0 -2 -17 -19 -37 -38 l-38 -34
34 38 c33 34 41 42 41 34z m-80 -80 c0 -2 -17 -19 -37 -38 l-38 -34 34 38 c33
34 41 42 41 34z m-80 -80 c0 -2 -17 -19 -37 -38 l-38 -34 34 38 c33 34 41 42
41 34z m-80 -80 c0 -2 -17 -19 -37 -38 l-38 -34 34 38 c33 34 41 42 41 34z
m-80 -80 c0 -2 -17 -19 -37 -38 l-38 -34 34 38 c33 34 41 42 41 34z m-80 -80
c0 -2 -17 -19 -37 -38 l-38 -34 34 38 c33 34 41 42 41 34z m-1735 -37 c10 -11
16 -20 13 -20 -3 0 -13 9 -23 20 -10 11 -16 20 -13 20 3 0 13 -9 23 -20z
m1625 -73 c0 -2 -10 -12 -22 -23 l-23 -19 19 23 c18 21 26 27 26 19z m-10
-1522 c19 -19 32 -35 29 -35 -3 0 -20 16 -39 35 -19 19 -32 35 -29 35 3 0 20
-16 39 -35z m3631 -42 c13 -16 12 -17 -3 -4 -10 7 -18 15 -18 17 0 8 8 3 21
-13z m-3551 -38 c19 -19 32 -35 29 -35 -3 0 -20 16 -39 35 -19 19 -32 35 -29
35 3 0 20 -16 39 -35z m80 -80 c19 -19 32 -35 29 -35 -3 0 -20 16 -39 35 -19
19 -32 35 -29 35 3 0 20 -16 39 -35z m80 -80 c19 -19 32 -35 29 -35 -3 0 -20
16 -39 35 -19 19 -32 35 -29 35 3 0 20 -16 39 -35z m80 -80 c19 -19 32 -35 29
-35 -3 0 -20 16 -39 35 -19 19 -32 35 -29 35 3 0 20 -16 39 -35z m80 -80 c19
-19 32 -35 29 -35 -3 0 -20 16 -39 35 -19 19 -32 35 -29 35 3 0 20 -16 39 -35z
m262 -1017 l-21 -23 391 3 c368 2 389 3 377 20 -12 15 -11 15 7 -1 21 -17 63
-18 885 -11 l864 7 -160 -174 c-88 -96 -212 -230 -275 -299 -64 -69 -136 -147
-161 -174 -24 -28 -76 -84 -115 -125 -75 -81 -701 -760 -963 -1046 -86 -93
-188 -204 -226 -245 -39 -41 -127 -136 -195 -210 -68 -74 -149 -162 -179 -195
-31 -33 -100 -108 -154 -167 l-98 -106 -45 19 c-32 14 -62 20 -102 18 l-57 -3
-108 139 c-59 77 -185 240 -279 363 -94 122 -174 222 -177 222 -3 0 -25 -30
-49 -66 l-43 -65 58 -75 c104 -135 246 -319 356 -463 l108 -140 -27 -51 c-19
-36 -31 -49 -43 -46 -9 2 -70 7 -136 11 -66 4 -210 13 -320 21 -110 7 -207 14
-216 14 -14 0 -18 17 -24 103 -6 96 -18 197 -31 260 l-6 27 -46 -45 c-56 -55
-191 -147 -248 -170 l-42 -16 6 -65 5 -64 -39 0 c-22 0 -201 11 -399 25 -329
22 -544 36 -745 50 -41 2 -126 8 -187 11 -62 4 -113 11 -113 15 0 4 18 88 39
186 129 581 175 792 273 1241 6 28 15 52 19 52 17 0 205 -85 276 -124 40 -23
115 -70 166 -106 100 -71 303 -266 356 -343 18 -27 36 -45 40 -40 4 4 33 97
64 206 l58 198 -22 27 c-30 39 -170 163 -254 226 -151 114 -364 230 -538 291
l-75 27 20 86 c10 48 28 131 40 185 l22 97 -30 33 -29 32 31 -28 31 -27 38
179 38 179 72 -92 c39 -50 148 -190 241 -311 93 -122 246 -320 339 -442 l170
-221 28 62 c50 108 69 71 -239 471 -397 515 -484 628 -481 630 1 1 265 5 586
9 l584 7 -6 -118 c-11 -192 -38 -285 -169 -573 -213 -468 -366 -894 -440
-1233 -28 -126 -32 -161 -32 -307 -1 -151 1 -170 22 -220 41 -97 101 -143 187
-143 217 0 614 479 1008 1218 163 303 333 694 420 960 36 109 71 265 80 359
l5 48 -52 -48 c-28 -27 -17 -14 24 29 41 42 77 77 79 77 2 0 -5 -10 -17 -22z
m-142 -141 c0 -2 -17 -19 -37 -38 l-38 -34 34 38 c33 34 41 42 41 34z m-80
-80 c0 -2 -17 -19 -37 -38 l-38 -34 34 38 c33 34 41 42 41 34z m-80 -80 c0 -2
-17 -19 -37 -38 l-38 -34 34 38 c33 34 41 42 41 34z m-2274 -109 l29 -33 -32
29 c-31 28 -38 36 -30 36 2 0 16 -15 33 -32z m2194 29 c0 -2 -17 -19 -37 -38
l-38 -34 34 38 c33 34 41 42 41 34z m-80 -80 c0 -2 -17 -19 -37 -38 l-38 -34
34 38 c33 34 41 42 41 34z m-80 -80 c0 -2 -17 -19 -37 -38 l-38 -34 34 38 c33
34 41 42 41 34z m-80 -80 c0 -2 -17 -19 -37 -38 l-38 -34 34 38 c33 34 41 42
41 34z m-80 -80 c0 -2 -12 -14 -27 -28 l-28 -24 24 28 c23 25 31 32 31 24z
m-2272 -459 c68 -9 82 -14 78 -27 -3 -9 -46 -205 -96 -436 -51 -231 -114 -521
-141 -645 -104 -474 -129 -593 -125 -598 5 -4 69 -9 346 -27 47 -3 180 -12
295 -20 116 -8 383 -26 595 -40 212 -13 416 -27 454 -31 l69 -6 -7 -76 c-14
-154 -74 -357 -156 -527 -131 -272 -342 -515 -593 -680 l-58 -38 28 -31 28
-31 -31 28 -30 27 -110 -54 c-142 -71 -244 -108 -385 -140 -257 -57 -474 -60
-724 -10 -187 37 -444 144 -599 248 l-69 47 -26 -23 -26 -23 23 26 23 27 -58
45 c-84 66 -220 208 -299 313 -226 301 -349 704 -331 1084 35 711 485 1312
1153 1539 109 37 268 75 354 84 83 9 342 6 418 -5z m7212 -124 c666 -114 1204
-608 1370 -1259 69 -269 67 -600 -5 -865 -170 -625 -668 -1092 -1311 -1230
-198 -43 -511 -38 -719 10 -166 39 -377 125 -510 209 l-62 39 -39 -36 -39 -37
35 38 c21 22 30 40 24 46 -5 5 -56 46 -113 91 -238 191 -428 468 -531 777 -61
184 -83 325 -84 533 0 100 5 207 13 250 49 285 149 529 307 752 80 112 278
309 394 391 90 63 317 187 343 187 7 0 144 -331 311 -748 165 -411 308 -766
318 -789 l18 -41 63 25 c34 13 65 28 70 32 4 4 -134 360 -307 792 -212 530
-311 786 -303 790 23 12 233 52 312 60 112 11 332 2 445 -17z m-4820 -1099
c13 -14 21 -25 18 -25 -2 0 -15 11 -28 25 -13 14 -21 25 -18 25 2 0 15 -11 28
-25z m95 -95 c21 -22 37 -40 34 -40 -3 0 -23 18 -44 40 -21 22 -37 40 -34 40
3 0 23 -18 44 -40z m110 -110 c21 -22 37 -40 34 -40 -3 0 -23 18 -44 40 -21
22 -37 40 -34 40 3 0 23 -18 44 -40z m115 -115 c35 -36 62 -65 59 -65 -2 0
-34 29 -69 65 -35 36 -62 65 -59 65 2 0 34 -29 69 -65z m176 -60 l35 -15 -30
-32 c-17 -18 -29 -39 -26 -47 9 -24 -22 7 -46 45 -11 19 -24 32 -28 30 -4 -3
-8 4 -8 15 -1 15 5 19 33 19 19 0 51 -7 70 -15z m-2686 -28 c0 -2 -10 -12 -22
-23 l-23 -19 19 23 c18 21 26 27 26 19z m2468 -77 l23 -30 -41 0 c-45 0 -44
-1 -28 35 14 32 19 32 46 -5z m352 -41 c6 -23 10 -56 9 -74 -2 -18 3 -41 11
-51 14 -17 14 -18 -2 -5 -16 12 -19 10 -27 -11 -15 -39 -61 -87 -105 -110 -87
-45 -211 -16 -267 64 l-23 31 96 -6 95 -7 63 70 62 71 -23 27 -24 27 29 -25
28 -25 25 33 c14 17 29 32 34 32 4 0 13 -18 19 -41z m-4440 -1502 c0 -2 -10
-12 -22 -23 l-23 -19 19 23 c18 21 26 27 26 19z"/>
<path d="M6212 5968 c-6 -56 -11 -103 -9 -104 2 -2 50 44 107 101 l105 105
-95 0 -96 0 -12 -102z"/>
<path d="M5855 8569 c-106 -15 -217 -55 -263 -95 -69 -59 -69 -57 -6 -206 257
-607 574 -1371 574 -1385 0 -5 8 -19 17 -33 9 -13 18 -31 19 -40 1 -8 9 -42
18 -75 20 -75 40 -302 32 -372 l-6 -53 204 0 c170 0 206 3 216 15 10 13 9 19
-6 38 -19 22 -19 22 2 5 20 -17 21 -16 61 25 130 137 293 359 356 485 71 144
64 219 -45 436 -103 206 -355 607 -599 952 -221 312 -212 302 -249 308 -49 8
-254 5 -325 -5z m1255 -1472 c0 -2 -15 -16 -32 -33 l-33 -29 29 33 c28 30 36
37 36 29z m-70 -70 c0 -2 -17 -19 -37 -38 l-38 -34 34 38 c33 34 41 42 41 34z
m-80 -80 c0 -2 -17 -19 -37 -38 l-38 -34 34 38 c33 34 41 42 41 34z m-80 -80
c0 -2 -17 -19 -37 -38 l-38 -34 34 38 c33 34 41 42 41 34z m-80 -80 c0 -2 -17
-19 -37 -38 l-38 -34 34 38 c33 34 41 42 41 34z m-520 -42 c19 -19 32 -35 29
-35 -3 0 -20 16 -39 35 -19 19 -32 35 -29 35 3 0 20 -16 39 -35z m440 -38 c0
-2 -17 -19 -37 -38 l-38 -34 34 38 c33 34 41 42 41 34z m-360 -42 c19 -19 32
-35 29 -35 -3 0 -20 16 -39 35 -19 19 -32 35 -29 35 3 0 20 -16 39 -35z m280
-38 c0 -2 -17 -19 -37 -38 l-38 -34 34 38 c33 34 41 42 41 34z m-200 -42 c19
-19 32 -35 29 -35 -3 0 -20 16 -39 35 -19 19 -32 35 -29 35 3 0 20 -16 39 -35z
m88 -63 c7 7 12 9 12 6 0 -3 -6 -11 -13 -17 -11 -8 -18 -6 -33 12 -19 22 -19
22 2 5 16 -14 23 -15 32 -6z m-38 -45 c0 -2 -19 -21 -42 -42 l-43 -40 40 43
c36 39 45 47 45 39z m140 -84 c0 -8 -9 0 -50 45 l-45 47 48 -45 c26 -24 47
-45 47 -47z m-230 -7 c0 -2 -8 -10 -17 -17 -16 -13 -17 -12 -4 4 13 16 21 21
21 13z"/>
<path d="M10645 7555 c-81 -18 -264 -90 -253 -100 2 -1 113 3 248 11 135 7
271 13 303 13 31 1 57 5 57 9 0 15 -76 51 -141 67 -77 18 -134 18 -214 0z"/>
<path d="M11080 6739 c-41 -20 -113 -50 -159 -66 -46 -15 -86 -35 -89 -43 -31
-91 -127 -333 -179 -448 -35 -80 -62 -151 -59 -159 3 -8 2 -12 -3 -8 -19 11
-150 -311 -158 -389 -4 -40 -2 -55 11 -65 41 -34 174 61 276 199 28 38 49 74
45 80 -4 6 -1 9 5 8 29 -7 199 320 280 535 52 141 114 358 108 381 -2 9 -25 2
-78 -25z"/>
</g>
</svg>
